<svg width="321" height="800" viewBox="0 0 321 800" fill="none" xmlns="http://www.w3.org/2000/svg">
<path fill-rule="evenodd" clip-rule="evenodd" d="M312 0H0V325V800H165V325H312V0Z" fill="black"/>
<path d="M34.7741 365.648V352.435H34.3561C27.6683 362.606 14.0739 368.496 0.280347 368.496C-31.0726 368.496 -49.261 342.887 -49.261 314.638C-49.261 286.389 -30.4398 261.593 -0.133746 261.593C5.86471 261.47 11.8181 262.625 17.3082 264.978C22.7982 267.331 27.6918 270.824 31.645 275.212H32.063V212.007H66.3419V365.652L34.7741 365.648ZM8.43305 288.824C-7.87238 288.824 -16.2321 301.634 -16.2321 314.649C-16.2321 327.855 -7.87628 340.855 8.43305 340.855C23.9064 340.855 33.524 328.056 33.524 314.839C33.524 302.037 23.9064 288.824 8.43305 288.824Z" fill="white" fill-opacity="0.15"/>
<path d="M103.657 261.187V365.63H137.932V261.187H103.657Z" fill="white" fill-opacity="0.15"/>
<path d="M273.811 261.194H273.065C272.944 261.194 272.819 261.194 272.698 261.194V261.172H211.812V258.133C211.812 248.783 214.48 237.066 227.024 237.066H250.599V212H218.34V212.16C186.846 213.785 177.533 234.715 177.533 258.536V261.194H169.373V286.261H177.529V365.656H211.804V290.123V286.257H234.321H265.483H265.58H273.877C275.849 286.11 277.831 286.382 279.684 287.053C281.537 287.724 283.219 288.779 284.611 290.145C286.004 291.51 287.074 293.154 287.749 294.961C288.424 296.769 288.686 298.697 288.519 300.613V302.25C258.209 302.25 221.629 307.123 221.629 336.382C221.629 360.168 242.939 368.087 259.447 368.087C271.795 368.087 283.722 363.214 288.945 354.878H289.562V365.641H320.915V314.631C320.926 278.114 308.152 261.441 273.811 261.194ZM289.573 324.999C289.573 337.608 281.85 345.736 268.03 345.736C261.139 345.736 253.205 343.104 253.205 335.368C253.205 323.381 270.119 321.558 285.179 321.558H289.573V324.999Z" fill="white" fill-opacity="0.15"/>
<path d="M142.072 231.809C141.825 237.135 139.476 242.164 135.512 245.849C131.548 249.533 126.275 251.589 120.791 251.589C115.307 251.589 110.035 249.533 106.071 245.849C102.107 242.164 99.7572 237.135 99.511 231.809C99.7572 226.483 102.107 221.454 106.071 217.77C110.035 214.085 115.307 212.029 120.791 212.029C126.275 212.029 131.548 214.085 135.512 217.77C139.476 221.454 141.825 226.483 142.072 231.809V231.809Z" fill="#FBB03B" fill-opacity="0.15"/>
</svg>
