<svg width="117" height="55" viewBox="0 0 117 55" fill="none" xmlns="http://www.w3.org/2000/svg">
<path d="M29.4852 53.9105V49.2745H29.3385C26.992 52.8432 22.2222 54.91 17.3824 54.91C6.3817 54.91 0 45.9245 0 36.0128C0 26.1012 6.60374 17.4009 17.2372 17.4009C19.3418 17.3578 21.4307 17.7633 23.3569 18.5888C25.2832 19.4143 27.0002 20.6399 28.3873 22.1795H28.534V0.00292969H40.5613V53.9119L29.4852 53.9105ZM20.243 26.9554C14.5219 26.9554 11.5888 31.4501 11.5888 36.0168C11.5888 40.6502 14.5205 45.2115 20.243 45.2115C25.6721 45.2115 29.0466 40.7208 29.0466 36.0835C29.0466 31.5914 25.6721 26.9554 20.243 26.9554Z" fill="#2F2F2F"/>
<path d="M46.667 17.2578V53.9034H58.693V17.2578H46.667Z" fill="#2F2F2F"/>
<path d="M99.7007 17.2607H99.4389C99.3964 17.2607 99.3525 17.2607 99.31 17.2607V17.2527H77.9473V16.1867C77.9473 12.9059 78.8834 8.79493 83.2845 8.79493H91.5563V0H80.2376V0.0559675C69.1875 0.626305 65.9199 7.97007 65.9199 16.3279V17.2607H63.0566V26.0556H65.9185V53.9129H77.9445V27.4109V26.0543H85.8449H96.7785H96.8127H99.724C100.416 26.0028 101.111 26.0982 101.761 26.3337C102.412 26.5693 103.001 26.9394 103.49 27.4185C103.979 27.8976 104.354 28.4742 104.591 29.1084C104.828 29.7425 104.92 30.4192 104.861 31.0914V31.6657C94.2263 31.6657 81.3917 33.3754 81.3917 43.6415C81.3917 51.9874 88.8685 54.7658 94.6608 54.7658C98.9934 54.7658 103.178 53.0561 105.011 50.1311H105.227V53.9076H116.228V36.0099C116.232 23.1973 111.75 17.3473 99.7007 17.2607ZM105.231 39.6478C105.231 44.0719 102.521 46.9236 97.6721 46.9236C95.2543 46.9236 92.4705 46.0002 92.4705 43.2857C92.4705 39.0801 98.4054 38.4405 103.689 38.4405H105.231V39.6478Z" fill="#2F2F2F"/>
<path d="M60.146 6.94996C60.0596 8.81877 59.2352 10.5832 57.8444 11.8759C56.4536 13.1687 54.6036 13.8902 52.6795 13.8902C50.7553 13.8902 48.9053 13.1687 47.5145 11.8759C46.1237 10.5832 45.2993 8.81877 45.2129 6.94996C45.2993 5.08114 46.1237 3.31672 47.5145 2.02398C48.9053 0.731229 50.7553 0.00976562 52.6795 0.00976562C54.6036 0.00976562 56.4536 0.731229 57.8444 2.02398C59.2352 3.31672 60.0596 5.08114 60.146 6.94996Z" fill="#FBB03B"/>
</svg>
