<svg width="425" height="202" viewBox="0 0 425 202" fill="none" xmlns="http://www.w3.org/2000/svg">
<path d="M53.6 97L47.9 81.3H16.4L10.7 97H0.8L26.9 27H37.4L63.5 97H53.6ZM19.6 72.6H44.7L32.1 38.1L19.6 72.6ZM97.1578 27C103.624 27 108.991 29.1667 113.258 33.5C117.591 37.7667 119.758 43.1 119.758 49.5C119.758 55.8333 117.591 61.1667 113.258 65.5C108.991 69.8333 103.624 72 97.1578 72H81.0578V97H71.7578V27H97.1578ZM97.1578 63.3C101.024 63.3 104.224 62 106.758 59.4C109.291 56.7333 110.558 53.4333 110.558 49.5C110.558 45.5 109.291 42.2 106.758 39.6C104.224 37 101.024 35.7 97.1578 35.7H81.0578V63.3H97.1578ZM177.417 97H166.817L149.617 69.4L132.417 97H121.917L144.417 61L123.217 27H133.717L149.617 52.5L165.517 27H176.017L154.917 60.9L177.417 97ZM230.102 97V44.8L194.102 97H186.602V27H195.902V79.3L231.902 27H239.402V97H230.102Z" fill="#2F2F2F"/>
<path d="M52.3 127V135.8H31.6V197H22.4V135.8H1.8V127H52.3ZM70.8039 188.2H103.304V197H61.5039V127H102.804V135.8H70.8039V157.3H100.304V166H70.8039V188.2ZM165.431 197H154.031L123.831 163.4V197H114.531V127H123.831V158.6L153.031 127H164.431L133.531 161L165.431 197ZM218.511 127V135.8H197.811V197H188.611V135.8H168.011V127H218.511ZM267.815 127H277.215L254.715 180.4C252.182 186.4 248.948 190.767 245.015 193.5C241.082 196.167 236.282 197.333 230.615 197V188.4C234.482 188.8 237.615 188.233 240.015 186.7C242.415 185.167 244.415 182.533 246.015 178.8L246.715 177.2L223.015 127H232.415L251.015 167L267.815 127ZM311.123 127C317.589 127 322.956 129.167 327.223 133.5C331.556 137.767 333.723 143.1 333.723 149.5C333.723 155.833 331.556 161.167 327.223 165.5C322.956 169.833 317.589 172 311.123 172H295.023V197H285.723V127H311.123ZM311.123 163.3C314.989 163.3 318.189 162 320.723 159.4C323.256 156.733 324.523 153.433 324.523 149.5C324.523 145.5 323.256 142.2 320.723 139.6C318.189 137 314.989 135.7 311.123 135.7H295.023V163.3H311.123ZM383.678 197L377.978 181.3H346.478L340.778 197H330.878L356.978 127H367.478L393.578 197H383.678ZM349.678 172.6H374.778L362.178 138.1L349.678 172.6Z" fill="#2F2F2F"/>
<path fill-rule="evenodd" clip-rule="evenodd" d="M262 29.9941L315.546 0V26.661L262.001 56.6549L262 56.654V29.9941Z" fill="#FBB03B"/>
<path fill-rule="evenodd" clip-rule="evenodd" d="M262 69.9354L315.546 39.4868V66.5518L262.001 97.0001L262 96.9992V69.9354Z" fill="#FBB03B"/>
<path d="M424.628 157.5C424.628 164.404 419.115 170 412.314 170C405.513 170 400 164.404 400 157.5C400 150.596 405.513 145 412.314 145C419.115 145 424.628 150.596 424.628 157.5Z" fill="#2F2F2F"/>
</svg>
