<svg width="406" height="196" viewBox="0 0 406 196" fill="none" xmlns="http://www.w3.org/2000/svg">
<path d="M53.6 72L47.9 56.3H16.4L10.7 72H0.8L26.9 2H37.4L63.5 72H53.6ZM19.6 47.6H44.7L32.1 13.1L19.6 47.6ZM113.258 72L97.5578 45.2H81.0578V72H71.7578V2H99.7578C105.758 2 110.891 4.13333 115.158 8.4C119.424 12.6 121.558 17.7 121.558 23.7C121.558 28.2333 120.191 32.3667 117.458 36.1C114.791 39.8333 111.324 42.4667 107.058 44L123.558 72H113.258ZM81.0578 10.7V36.8H99.7578C103.224 36.8 106.158 35.5333 108.558 33C111.024 30.4 112.258 27.3 112.258 23.7C112.258 20.1 111.024 17.0333 108.558 14.5C106.158 11.9667 103.224 10.7 99.7578 10.7H81.0578ZM176.191 2H185.391V72H176.191V40.5H142.191V72H132.891V2H142.191V31.7H176.191V2ZM200.371 2H209.671V72H200.371V2ZM269.488 2V10.8H248.788V72H239.588V10.8H218.988V2H269.488ZM287.991 63.2H320.491V72H278.691V2H319.991V10.8H287.991V32.3H317.491V41H287.991V63.2ZM364.13 73.3C353.53 73.3 344.764 69.8 337.83 62.8C330.964 55.8 327.53 47.2 327.53 37C327.53 26.8 330.964 18.2 337.83 11.2C344.764 4.19999 353.53 0.699994 364.13 0.699994C370.53 0.699994 376.397 2.23333 381.73 5.29999C387.13 8.36666 391.33 12.5 394.33 17.7L386.23 22.4C384.23 18.5333 381.23 15.4667 377.23 13.2C373.297 10.8667 368.93 9.7 364.13 9.7C356.064 9.7 349.464 12.3 344.33 17.5C339.264 22.7 336.73 29.2 336.73 37C336.73 44.7333 339.264 51.2 344.33 56.4C349.464 61.6 356.064 64.2 364.13 64.2C368.93 64.2 373.297 63.0667 377.23 60.8C381.23 58.4667 384.23 55.4 386.23 51.6L394.33 56.2C391.397 61.4 387.23 65.5667 381.83 68.7C376.43 71.7667 370.53 73.3 364.13 73.3Z" fill="#2F2F2F"/>
<path d="M127.3 102V110.8H106.6V172H97.4V110.8H76.8V102H127.3ZM180.804 166.6C175.937 171.067 169.637 173.3 161.904 173.3C154.171 173.3 147.837 171.067 142.904 166.6C138.037 162.067 135.604 156.033 135.604 148.5V102H144.904V148.1C144.904 153.033 146.371 156.967 149.304 159.9C152.237 162.767 156.437 164.2 161.904 164.2C167.371 164.2 171.571 162.767 174.504 159.9C177.437 156.967 178.904 153.033 178.904 148.1V102H188.104V148.5C188.104 156.033 185.671 162.067 180.804 166.6ZM243.824 172L228.124 145.2H211.624V172H202.324V102H230.324C236.324 102 241.458 104.133 245.724 108.4C249.991 112.6 252.124 117.7 252.124 123.7C252.124 128.233 250.758 132.367 248.024 136.1C245.358 139.833 241.891 142.467 237.624 144L254.124 172H243.824ZM211.624 110.7V136.8H230.324C233.791 136.8 236.724 135.533 239.124 133C241.591 130.4 242.824 127.3 242.824 123.7C242.824 120.1 241.591 117.033 239.124 114.5C236.724 111.967 233.791 110.7 230.324 110.7H211.624ZM288.057 96.3C283.457 96.3 279.824 95.1333 277.157 92.8C274.49 90.4 273.157 87.0667 273.157 82.8H281.257C281.257 87.1333 283.524 89.3 288.057 89.3C292.59 89.3 294.857 87.1333 294.857 82.8H302.957C302.957 87.0667 301.624 90.4 298.957 92.8C296.357 95.1333 292.724 96.3 288.057 96.3ZM309.557 172L303.857 156.3H272.357L266.657 172H256.757L282.857 102H293.357L319.457 172H309.557ZM275.557 147.6H300.657L288.057 113.1L275.557 147.6Z" fill="#2F2F2F"/>
<path fill-rule="evenodd" clip-rule="evenodd" d="M7 128.994L60.5458 99V125.661L7.00053 155.655L7 155.654V128.994Z" fill="#FBB03B"/>
<path fill-rule="evenodd" clip-rule="evenodd" d="M7 168.935L60.5458 138.486V165.551L7.00053 196L7 195.999V168.935Z" fill="#FBB03B"/>
<path d="M350.628 162.5C350.628 169.404 345.115 175 338.314 175C331.513 175 326 169.404 326 162.5C326 155.596 331.513 150 338.314 150C345.115 150 350.628 155.596 350.628 162.5Z" fill="#2F2F2F"/>
</svg>
