<svg width="328" height="174" viewBox="0 0 328 174" fill="none" xmlns="http://www.w3.org/2000/svg">
<path d="M7.5 -4.76837e-06H16.8V70H7.5V-4.76837e-06ZM75.3164 -4.76837e-06H84.6164V70H77.1164L41.1164 17.7V70H31.8164V-4.76837e-06H39.3164L75.3164 52.2V-4.76837e-06ZM144.39 -4.76837e-06V8.8H123.69V70H114.49V8.8H93.8898V-4.76837e-06H144.39ZM162.894 61.2H195.394V70H153.594V-4.76837e-06H194.894V8.8H162.894V30.3H192.394V39H162.894V61.2Z" fill="#2F2F2F"/>
<path d="M117 150L101.3 123.2H84.8V150H75.5V80H103.5C109.5 80 114.633 82.1333 118.9 86.4C123.167 90.6 125.3 95.7 125.3 101.7C125.3 106.233 123.933 110.367 121.2 114.1C118.533 117.833 115.067 120.467 110.8 122L127.3 150H117ZM84.8 88.7V114.8H103.5C106.967 114.8 109.9 113.533 112.3 111C114.767 108.4 116 105.3 116 101.7C116 98.1 114.767 95.0333 112.3 92.5C109.9 89.9667 106.967 88.7 103.5 88.7H84.8ZM136.633 80H145.933V150H136.633V80ZM219.149 140.7C212.149 147.767 203.583 151.3 193.449 151.3C183.316 151.3 174.749 147.767 167.749 140.7C160.749 133.633 157.249 125.067 157.249 115C157.249 104.867 160.749 96.3 167.749 89.3C174.749 82.2333 183.316 78.7 193.449 78.7C203.583 78.7 212.149 82.2333 219.149 89.3C226.216 96.3 229.749 104.867 229.749 115C229.749 125.067 226.216 133.633 219.149 140.7ZM174.149 134.4C179.349 139.6 185.783 142.2 193.449 142.2C201.116 142.2 207.516 139.6 212.649 134.4C217.849 129.133 220.449 122.667 220.449 115C220.449 107.267 217.849 100.8 212.649 95.6C207.516 90.3333 201.116 87.7 193.449 87.7C185.783 87.7 179.349 90.3333 174.149 95.6C169.016 100.8 166.449 107.267 166.449 115C166.449 122.667 169.016 129.133 174.149 134.4ZM282.43 150L266.73 123.2H250.23V150H240.93V80H268.93C274.93 80 280.063 82.1333 284.33 86.4C288.596 90.6 290.73 95.7 290.73 101.7C290.73 106.233 289.363 110.367 286.63 114.1C283.963 117.833 280.496 120.467 276.23 122L292.73 150H282.43ZM250.23 88.7V114.8H268.93C272.396 114.8 275.33 113.533 277.73 111C280.196 108.4 281.43 105.3 281.43 101.7C281.43 98.1 280.196 95.0333 277.73 92.5C275.33 89.9667 272.396 88.7 268.93 88.7H250.23Z" fill="#2F2F2F"/>
<path fill-rule="evenodd" clip-rule="evenodd" d="M7 106.994L60.5458 77V103.661L7.00053 133.655L7 133.654V106.994Z" fill="#FBB03B"/>
<path fill-rule="evenodd" clip-rule="evenodd" d="M7 146.935L60.5458 116.487V143.552L7.00053 174L7 173.999V146.935Z" fill="#FBB03B"/>
<path d="M327.628 140.5C327.628 147.404 322.115 153 315.314 153C308.513 153 303 147.404 303 140.5C303 133.596 308.513 128 315.314 128C322.115 128 327.628 133.596 327.628 140.5Z" fill="#2F2F2F"/>
</svg>
