<svg width="293" height="174" viewBox="0 0 293 174" fill="none" xmlns="http://www.w3.org/2000/svg">
<path d="M7.5 -4.76837e-06H16.8V70H7.5V-4.76837e-06ZM75.3164 -4.76837e-06H84.6164V70H77.1164L41.1164 17.7V70H31.8164V-4.76837e-06H39.3164L75.3164 52.2V-4.76837e-06ZM144.39 -4.76837e-06V8.8H123.69V70H114.49V8.8H93.8898V-4.76837e-06H144.39ZM162.894 61.2H195.394V70H153.594V-4.76837e-06H194.894V8.8H162.894V30.3H192.394V39H162.894V61.2ZM248.121 70L232.421 43.2H215.921V70H206.621V-4.76837e-06H234.621C240.621 -4.76837e-06 245.754 2.13333 250.021 6.4C254.288 10.6 256.421 15.7 256.421 21.7C256.421 26.2333 255.054 30.3667 252.321 34.1C249.654 37.8333 246.188 40.4667 241.921 42L258.421 70H248.121ZM215.921 8.7V34.8H234.621C238.088 34.8 241.021 33.5333 243.421 31C245.888 28.4 247.121 25.3 247.121 21.7C247.121 18.1 245.888 15.0333 243.421 12.5C241.021 9.96666 238.088 8.7 234.621 8.7H215.921Z" fill="#2F2F2F"/>
<path d="M102.5 80H111.8V150H102.5V80ZM185.016 140.7C178.016 147.767 169.45 151.3 159.316 151.3C149.183 151.3 140.616 147.767 133.616 140.7C126.616 133.633 123.116 125.067 123.116 115C123.116 104.867 126.616 96.3 133.616 89.3C140.616 82.2333 149.183 78.7 159.316 78.7C169.45 78.7 178.016 82.2333 185.016 89.3C192.083 96.3 195.616 104.867 195.616 115C195.616 125.067 192.083 133.633 185.016 140.7ZM140.016 134.4C145.216 139.6 151.65 142.2 159.316 142.2C166.983 142.2 173.383 139.6 178.516 134.4C183.716 129.133 186.316 122.667 186.316 115C186.316 107.267 183.716 100.8 178.516 95.6C173.383 90.3333 166.983 87.7 159.316 87.7C151.65 87.7 145.216 90.3333 140.016 95.6C134.883 100.8 132.316 107.267 132.316 115C132.316 122.667 134.883 129.133 140.016 134.4ZM248.297 150L232.597 123.2H216.097V150H206.797V80H234.797C240.797 80 245.93 82.1333 250.197 86.4C254.464 90.6 256.597 95.7 256.597 101.7C256.597 106.233 255.23 110.367 252.497 114.1C249.83 117.833 246.364 120.467 242.097 122L258.597 150H248.297ZM216.097 88.7V114.8H234.797C238.264 114.8 241.197 113.533 243.597 111C246.064 108.4 247.297 105.3 247.297 101.7C247.297 98.1 246.064 95.0333 243.597 92.5C241.197 89.9667 238.264 88.7 234.797 88.7H216.097Z" fill="#2F2F2F"/>
<path fill-rule="evenodd" clip-rule="evenodd" d="M7 106.994L60.5458 77V103.661L7.00053 133.655L7 133.654V106.994Z" fill="#FBB03B"/>
<path fill-rule="evenodd" clip-rule="evenodd" d="M7 146.935L60.5458 116.486V143.551L7.00053 174L7 173.999V146.935Z" fill="#FBB03B"/>
<path d="M292.628 140.5C292.628 147.404 287.115 153 280.314 153C273.513 153 268 147.404 268 140.5C268 133.596 273.513 128 280.314 128C287.115 128 292.628 133.596 292.628 140.5Z" fill="#2F2F2F"/>
</svg>
