<svg width="293" height="176" viewBox="0 0 293 176" fill="none" xmlns="http://www.w3.org/2000/svg">
<path d="M73 2V72H63.8V17.3L40.9 55.4H39.7L16.8 17.4V72H7.5V2H18L40.3 39L62.5 2H73ZM146.169 62.7C139.169 69.7667 130.602 73.3 120.469 73.3C110.335 73.3 101.769 69.7667 94.7688 62.7C87.7688 55.6333 84.2688 47.0667 84.2688 37C84.2688 26.8667 87.7688 18.3 94.7688 11.3C101.769 4.23333 110.335 0.699994 120.469 0.699994C130.602 0.699994 139.169 4.23333 146.169 11.3C153.235 18.3 156.769 26.8667 156.769 37C156.769 47.0667 153.235 55.6333 146.169 62.7ZM101.169 56.4C106.369 61.6 112.802 64.2 120.469 64.2C128.135 64.2 134.535 61.6 139.669 56.4C144.869 51.1333 147.469 44.6667 147.469 37C147.469 29.2667 144.869 22.8 139.669 17.6C134.535 12.3333 128.135 9.7 120.469 9.7C112.802 9.7 106.369 12.3333 101.169 17.6C96.0354 22.8 93.4688 29.2667 93.4688 37C93.4688 44.6667 96.0354 51.1333 101.169 56.4ZM207.949 35.7C211.149 37.2333 213.683 39.4333 215.549 42.3C217.483 45.1667 218.449 48.4667 218.449 52.2C218.449 57.8 216.483 62.5 212.549 66.3C208.616 70.1 203.816 72 198.149 72H167.949V2H195.949C201.416 2 206.049 3.83333 209.849 7.5C213.649 11.1667 215.549 15.7 215.549 21.1C215.549 27.3 213.016 32.1667 207.949 35.7ZM195.949 10.7H177.249V32.1H195.949C198.883 32.1 201.349 31.0667 203.349 29C205.349 26.9333 206.349 24.4 206.349 21.4C206.349 18.4667 205.316 15.9667 203.249 13.9C201.249 11.7667 198.816 10.7 195.949 10.7ZM198.149 63.3C201.283 63.3 203.916 62.2 206.049 60C208.183 57.8 209.249 55.1 209.249 51.9C209.249 48.7667 208.149 46.1 205.949 43.9C203.816 41.7 201.216 40.6 198.149 40.6H177.249V63.3H198.149ZM229.473 2H238.773V72H229.473V2Z" fill="#2F2F2F"/>
<path d="M91.8 143.2H122V152H82.5V82H91.8V143.2ZM131.328 82H140.628V152H131.328V82ZM164.945 143.2H197.445V152H155.645V82H196.945V90.8H164.945V112.3H194.445V121H164.945V143.2ZM250.172 152L234.472 125.2H217.972V152H208.672V82H236.672C242.672 82 247.805 84.1333 252.072 88.4C256.339 92.6 258.472 97.7 258.472 103.7C258.472 108.233 257.105 112.367 254.372 116.1C251.705 119.833 248.239 122.467 243.972 124L260.472 152H250.172ZM217.972 90.7V116.8H236.672C240.139 116.8 243.072 115.533 245.472 113C247.939 110.4 249.172 107.3 249.172 103.7C249.172 100.1 247.939 97.0333 245.472 94.5C243.072 91.9667 240.139 90.7 236.672 90.7H217.972Z" fill="#2F2F2F"/>
<path fill-rule="evenodd" clip-rule="evenodd" d="M7 108.994L60.5458 79V105.661L7.00053 135.655L7 135.654V108.994Z" fill="#FBB03B"/>
<path fill-rule="evenodd" clip-rule="evenodd" d="M7 148.935L60.5458 118.486V145.551L7.00053 176L7 175.999V148.935Z" fill="#FBB03B"/>
<path d="M292.628 142.5C292.628 149.404 287.115 155 280.314 155C273.513 155 268 149.404 268 142.5C268 135.596 273.513 130 280.314 130C287.115 130 292.628 135.596 292.628 142.5Z" fill="#2F2F2F"/>
</svg>
