<svg width="403" height="197" viewBox="0 0 403 197" fill="none" xmlns="http://www.w3.org/2000/svg">
<path d="M73 122V192H63.8V137.3L40.9 175.4H39.7L16.8 137.4V192H7.5V122H18L40.3 159L62.5 122H73ZM97.2688 183.2H129.769V192H87.9688V122H129.269V130.8H97.2688V152.3H126.769V161H97.2688V183.2ZM167.296 149.5C173.363 149.5 178.496 151.567 182.696 155.7C186.896 159.767 188.996 164.767 188.996 170.7C188.996 176.767 186.896 181.833 182.696 185.9C178.563 189.967 173.429 192 167.296 192H140.996V122H182.996V130.8H150.296V149.5H167.296ZM167.296 183.3C170.763 183.3 173.696 182.1 176.096 179.7C178.563 177.3 179.796 174.3 179.796 170.7C179.796 167.167 178.563 164.2 176.096 161.8C173.696 159.4 170.763 158.2 167.296 158.2H150.296V183.3H167.296ZM208.792 183.2H241.292V192H199.492V122H240.792V130.8H208.792V152.3H238.292V161H208.792V183.2ZM246.42 192V183.6C251.02 184.267 254.453 183 256.72 179.8C259.053 176.533 260.22 170.5 260.22 161.7V122H306.42V192H297.12V130.8H269.52V161.7C269.52 167.967 268.92 173.233 267.72 177.5C266.586 181.7 264.92 184.867 262.72 187C260.586 189.133 258.186 190.6 255.52 191.4C252.92 192.133 249.886 192.333 246.42 192ZM346.865 147C353.332 147 358.698 149.167 362.965 153.5C367.298 157.833 369.465 163.167 369.465 169.5C369.465 175.9 367.298 181.267 362.965 185.6C358.698 189.867 353.332 192 346.865 192H321.465V122H330.765V147H346.865ZM346.865 183.3C350.732 183.3 353.932 182 356.465 179.4C358.998 176.8 360.265 173.5 360.265 169.5C360.265 165.567 358.998 162.3 356.465 159.7C353.932 157.033 350.732 155.7 346.865 155.7H330.765V183.3H346.865Z" fill="#2F2F2F"/>
<path fill-rule="evenodd" clip-rule="evenodd" d="M6 29.9941L59.5458 0V26.661L6.00053 56.6549L6 56.654V29.9941Z" fill="#FBB03B"/>
<path fill-rule="evenodd" clip-rule="evenodd" d="M6 69.9354L59.5458 39.4868V66.5518L6.00053 97.0001L6 96.9992V69.9354Z" fill="#FBB03B"/>
<path d="M402.628 179.5C402.628 186.404 397.115 192 390.314 192C383.513 192 378 186.404 378 179.5C378 172.596 383.513 167 390.314 167C397.115 167 402.628 172.596 402.628 179.5Z" fill="#2F2F2F"/>
</svg>
