<svg width="289" height="187" viewBox="0 0 289 187" fill="none" xmlns="http://www.w3.org/2000/svg">
<path d="M49 97L33.3 70.2H16.8V97H7.5V27H35.5C41.5 27 46.6333 29.1333 50.9 33.4C55.1667 37.6 57.3 42.7 57.3 48.7C57.3 53.2333 55.9333 57.3667 53.2 61.1C50.5333 64.8333 47.0667 67.4667 42.8 69L59.3 97H49ZM16.8 35.7V61.8H35.5C38.9667 61.8 41.9 60.5333 44.3 58C46.7667 55.4 48 52.3 48 48.7C48 45.1 46.7667 42.0333 44.3 39.5C41.9 36.9667 38.9667 35.7 35.5 35.7H16.8ZM77.9328 88.2H110.433V97H68.6328V27H109.933V35.8H77.9328V57.3H107.433V66H77.9328V88.2Z" fill="#2F2F2F"/>
<path d="M32.9 112C39.3667 112 44.7333 114.167 49 118.5C53.3333 122.767 55.5 128.1 55.5 134.5C55.5 140.833 53.3333 146.167 49 150.5C44.7333 154.833 39.3667 157 32.9 157H16.8V182H7.5V112H32.9ZM32.9 148.3C36.7667 148.3 39.9667 147 42.5 144.4C45.0333 141.733 46.3 138.433 46.3 134.5C46.3 130.5 45.0333 127.2 42.5 124.6C39.9667 122 36.7667 120.7 32.9 120.7H16.8V148.3H32.9ZM105.455 182L99.7555 166.3H68.2555L62.5555 182H52.6555L78.7555 112H89.2555L115.355 182H105.455ZM71.4555 157.6H96.5555L83.9555 123.1L71.4555 157.6ZM123.613 112H132.913V182H123.613V112ZM189.43 182L173.73 155.2H157.23V182H147.93V112H175.93C181.93 112 187.063 114.133 191.33 118.4C195.596 122.6 197.73 127.7 197.73 133.7C197.73 138.233 196.363 142.367 193.63 146.1C190.963 149.833 187.496 152.467 183.23 154L199.73 182H189.43ZM157.23 120.7V146.8H175.93C179.396 146.8 182.33 145.533 184.73 143C187.196 140.4 188.43 137.3 188.43 133.7C188.43 130.1 187.196 127.033 184.73 124.5C182.33 121.967 179.396 120.7 175.93 120.7H157.23ZM230.588 183.3C224.055 183.3 218.455 181.767 213.788 178.7C209.188 175.633 205.955 171.433 204.088 166.1L212.088 161.5C214.822 169.967 221.055 174.2 230.788 174.2C235.588 174.2 239.255 173.233 241.788 171.3C244.322 169.3 245.588 166.667 245.588 163.4C245.588 160.067 244.322 157.567 241.788 155.9C239.255 154.233 235.022 152.467 229.088 150.6C226.155 149.667 223.922 148.933 222.388 148.4C220.855 147.8 218.922 146.933 216.588 145.8C214.322 144.6 212.622 143.4 211.488 142.2C210.355 140.933 209.322 139.3 208.388 137.3C207.522 135.3 207.088 133.033 207.088 130.5C207.088 124.433 209.222 119.633 213.488 116.1C217.755 112.5 222.955 110.7 229.088 110.7C234.622 110.7 239.422 112.1 243.488 114.9C247.622 117.7 250.722 121.4 252.788 126L244.988 130.5C241.988 123.3 236.688 119.7 229.088 119.7C225.288 119.7 222.222 120.633 219.888 122.5C217.555 124.367 216.388 126.9 216.388 130.1C216.388 133.167 217.488 135.5 219.688 137.1C221.888 138.7 225.688 140.367 231.088 142.1C233.022 142.7 234.388 143.133 235.188 143.4C235.988 143.667 237.222 144.133 238.888 144.8C240.622 145.467 241.888 146 242.688 146.4C243.488 146.8 244.555 147.367 245.888 148.1C247.288 148.833 248.322 149.533 248.988 150.2C249.655 150.867 250.422 151.7 251.288 152.7C252.222 153.633 252.888 154.6 253.288 155.6C253.688 156.6 254.022 157.767 254.288 159.1C254.622 160.367 254.788 161.733 254.788 163.2C254.788 169.333 252.555 174.233 248.088 177.9C243.622 181.5 237.788 183.3 230.588 183.3Z" fill="#2F2F2F"/>
<path fill-rule="evenodd" clip-rule="evenodd" d="M130 29.9941L183.546 0V26.661L130.001 56.6549L130 56.654V29.9941Z" fill="#FBB03B"/>
<path fill-rule="evenodd" clip-rule="evenodd" d="M130 69.9354L183.546 39.4868V66.5518L130.001 97.0001L130 96.9992V69.9354Z" fill="#FBB03B"/>
<path d="M288.628 169.5C288.628 176.404 283.115 182 276.314 182C269.513 182 264 176.404 264 169.5C264 162.596 269.513 157 276.314 157C283.115 157 288.628 162.596 288.628 169.5Z" fill="#2F2F2F"/>
</svg>
