<svg width="358" height="175" viewBox="0 0 358 175" fill="none" xmlns="http://www.w3.org/2000/svg">
<path d="M49 70L33.3 43.2H16.8V70H7.5V-4.76837e-06H35.5C41.5 -4.76837e-06 46.6333 2.13333 50.9 6.4C55.1667 10.6 57.3 15.7 57.3 21.7C57.3 26.2333 55.9333 30.3667 53.2 34.1C50.5333 37.8333 47.0667 40.4667 42.8 42L59.3 70H49ZM16.8 8.7V34.8H35.5C38.9667 34.8 41.9 33.5333 44.3 31C46.7667 28.4 48 25.3 48 21.7C48 18.1 46.7667 15.0333 44.3 12.5C41.9 9.96666 38.9667 8.7 35.5 8.7H16.8ZM77.9328 61.2H110.433V70H68.6328V-4.76837e-06H109.933V8.8H77.9328V30.3H107.433V39H77.9328V61.2ZM147.06 -4.76837e-06C153.527 -4.76837e-06 158.893 2.16666 163.16 6.49999C167.493 10.7667 169.66 16.1 169.66 22.5C169.66 28.8333 167.493 34.1667 163.16 38.5C158.893 42.8333 153.527 45 147.06 45H130.96V70H121.66V-4.76837e-06H147.06ZM147.06 36.3C150.927 36.3 154.127 35 156.66 32.4C159.193 29.7333 160.46 26.4333 160.46 22.5C160.46 18.5 159.193 15.2 156.66 12.6C154.127 10 150.927 8.7 147.06 8.7H130.96V36.3H147.06ZM219.616 70L213.916 54.3H182.416L176.716 70H166.816L192.916 -4.76837e-06H203.416L229.516 70H219.616ZM185.616 45.6H210.716L198.116 11.1L185.616 45.6Z" fill="#2F2F2F"/>
<path d="M124 150L108.3 123.2H91.8V150H82.5V80H110.5C116.5 80 121.633 82.1333 125.9 86.4C130.167 90.6 132.3 95.7 132.3 101.7C132.3 106.233 130.933 110.367 128.2 114.1C125.533 117.833 122.067 120.467 117.8 122L134.3 150H124ZM91.8 88.7V114.8H110.5C113.967 114.8 116.9 113.533 119.3 111C121.767 108.4 123 105.3 123 101.7C123 98.1 121.767 95.0333 119.3 92.5C116.9 89.9667 113.967 88.7 110.5 88.7H91.8ZM189.733 150L184.033 134.3H152.533L146.833 150H136.933L163.033 80H173.533L199.633 150H189.733ZM155.733 125.6H180.833L168.233 91.1L155.733 125.6ZM247.613 80V88.8H226.913V150H217.713V88.8H197.113V80H247.613ZM217.313 174.8L218.313 156.8H226.813L223.813 174.8H217.313ZM256.816 80H266.116V150H256.816V80ZM290.433 141.2H322.933V150H281.133V80H322.433V88.8H290.433V110.3H319.933V119H290.433V141.2Z" fill="#2F2F2F"/>
<path fill-rule="evenodd" clip-rule="evenodd" d="M7 106.994L60.5458 77V103.661L7.00053 133.655L7 133.654V106.994Z" fill="#FBB03B"/>
<path fill-rule="evenodd" clip-rule="evenodd" d="M7 146.935L60.5458 116.486V143.551L7.00053 174L7 173.999V146.935Z" fill="#FBB03B"/>
<path d="M357.628 140.5C357.628 147.404 352.115 153 345.314 153C338.513 153 333 147.404 333 140.5C333 133.596 338.513 128 345.314 128C352.115 128 357.628 133.596 357.628 140.5Z" fill="#2F2F2F"/>
</svg>
