<svg width="96" height="70" viewBox="0 0 96 70" fill="none" xmlns="http://www.w3.org/2000/svg">
<path d="M96 35C96 54.33 80.33 70 61 70C41.67 70 26 54.33 26 35C26 15.67 41.67 0 61 0C80.33 0 96 15.67 96 35ZM27.05 35C27.05 53.7501 42.2499 68.95 61 68.95C79.7501 68.95 94.95 53.7501 94.95 35C94.95 16.2499 79.7501 1.05 61 1.05C42.2499 1.05 27.05 16.2499 27.05 35Z" fill="#2F2F2F"/>
<path d="M60.3536 35.3536C60.5488 35.1583 60.5488 34.8417 60.3536 34.6465L57.1716 31.4645C56.9763 31.2692 56.6597 31.2692 56.4645 31.4645C56.2692 31.6597 56.2692 31.9763 56.4645 32.1716L59.2929 35L56.4645 37.8284C56.2692 38.0237 56.2692 38.3403 56.4645 38.5355C56.6597 38.7308 56.9763 38.7308 57.1716 38.5355L60.3536 35.3536ZM-4.37114e-08 35.5L60 35.5L60 34.5L4.37114e-08 34.5L-4.37114e-08 35.5Z" fill="black"/>
</svg>
