<svg width="70" height="96" viewBox="0 0 70 96" fill="none" xmlns="http://www.w3.org/2000/svg">
<path d="M35 96C15.67 96 -2.37484e-06 80.33 -1.5299e-06 61C-6.84959e-07 41.67 15.67 26 35 26C54.33 26 70 41.67 70 61C70 80.33 54.33 96 35 96ZM35 27.05C16.2499 27.05 1.05 42.2499 1.05 61C1.05 79.7501 16.2499 94.95 35 94.95C53.7501 94.95 68.95 79.7501 68.95 61C68.95 42.2499 53.7501 27.05 35 27.05Z" fill="#2F2F2F"/>
<path d="M34.6464 60.3536C34.8417 60.5488 35.1583 60.5488 35.3535 60.3536L38.5355 57.1716C38.7308 56.9763 38.7308 56.6597 38.5355 56.4645C38.3403 56.2692 38.0237 56.2692 37.8284 56.4645L35 59.2929L32.1716 56.4645C31.9763 56.2692 31.6597 56.2692 31.4645 56.4645C31.2692 56.6597 31.2692 56.9763 31.4645 57.1716L34.6464 60.3536ZM34.5 -6.55671e-08L34.5 60L35.5 60L35.5 6.55671e-08L34.5 -6.55671e-08Z" fill="black"/>
</svg>
