<?xml version="1.0" encoding="utf-8"?><svg viewBox="0 0 27 25" xmlns="http://www.w3.org/2000/svg" xmlns:xlink="http://www.w3.org/1999/xlink"><style>:root>svg{display:none}:root>svg:target{display:block}</style><svg viewBox="0 0 27 24" id="arrow-slider" xmlns="http://www.w3.org/2000/svg"><path d="M.94 10.94a1.5 1.5 0 000 2.12l9.545 9.547a1.5 1.5 0 102.122-2.122L4.12 12l8.486-8.485a1.5 1.5 0 10-2.122-2.122L.94 10.94zM27 10.5H2v3h25v-3z"/></svg><svg viewBox="0 0 25 25" id="facebook" xmlns="http://www.w3.org/2000/svg"><path d="M0 12.575C.002 18.762 4.473 24.03 10.546 25v-8.79H7.375v-3.635h3.175V9.808a4.454 4.454 0 011.214-3.565 4.395 4.395 0 013.502-1.34c.938.016 1.874.1 2.8.252v3.093h-1.58a1.8 1.8 0 00-1.487.49 1.825 1.825 0 00-.548 1.475v2.362h3.464l-.554 3.636h-2.91V25c6.568-1.044 11.174-7.08 10.48-13.734C24.238 4.612 18.49-.33 11.848.017 5.208.367.001 5.885 0 12.575z"/></svg><svg viewBox="0 0 25 25" id="instagram" xmlns="http://www.w3.org/2000/svg"><path d="M12.493 25c-3.414 0-3.817-.018-5.15-.076A9.152 9.152 0 014.31 24.3a6.407 6.407 0 01-3.65-3.647 9.124 9.124 0 01-.582-3.031C0 16.294 0 15.859 0 12.475c0-3.42.018-3.819.078-5.142A9.123 9.123 0 01.66 4.305C1.31 2.63 2.637 1.306 4.315.657A9.08 9.08 0 017.346.075C8.672 0 9.108 0 12.493 0c3.443 0 3.838.018 5.15.075 1.04.02 2.067.217 3.04.582a6.401 6.401 0 013.655 3.648c.37.983.569 2.023.584 3.073C25 8.706 25 9.14 25 12.522s-.02 3.826-.078 5.138a9.138 9.138 0 01-.582 3.035 6.414 6.414 0 01-3.657 3.648 9.191 9.191 0 01-3.034.58c-1.326.077-1.76.077-5.156.077zm-.047-22.806c-3.395 0-3.748.017-5.073.076a6.934 6.934 0 00-2.317.432A4.146 4.146 0 002.67 5.075a6.943 6.943 0 00-.432 2.338c-.074 1.343-.074 1.695-.074 5.062 0 3.327.013 3.73.074 5.065.012.79.158 1.573.432 2.315a4.149 4.149 0 002.386 2.371 6.84 6.84 0 002.317.431c1.343.078 1.697.078 5.073.078 3.405 0 3.758-.017 5.072-.078a6.901 6.901 0 002.318-.43 4.162 4.162 0 002.374-2.37c.277-.749.423-1.54.432-2.34h.015c.06-1.324.06-1.678.06-5.064s-.015-3.743-.075-5.066a6.998 6.998 0 00-.432-2.312 4.161 4.161 0 00-2.374-2.373 6.87 6.87 0 00-2.318-.432c-1.342-.076-1.693-.076-5.072-.076zm.047 16.684a6.417 6.417 0 01-5.931-3.953A6.401 6.401 0 017.949 7.94a6.424 6.424 0 016.994-1.392 6.408 6.408 0 013.963 5.92 6.42 6.42 0 01-6.413 6.41zm0-10.571a4.161 4.161 0 00-4.164 4.158 4.161 4.161 0 004.164 4.159c2.3 0 4.165-1.862 4.165-4.159a4.171 4.171 0 00-4.165-4.158zm6.663-.988a1.495 1.495 0 11.01-2.991 1.495 1.495 0 01-.01 2.99z"/></svg><svg fill="none" viewBox="0 0 17 16" id="plus" xmlns="http://www.w3.org/2000/svg"><path d="M9 8H1m8 8V8v8zm0-8V0v8zm0 0h8-8z" stroke="#988A75" stroke-width="2" stroke-linecap="round"/></svg><svg viewBox="0 0 27 25" id="viber" xmlns="http://www.w3.org/2000/svg"><path d="M22.917 3.663c-5.024-4.884-13.163-4.884-18.181 0-4.832 4.697-5.013 12.21-.54 17.12l.134.104c-.487 1.018-1.32 2.276-2.646 2.91-.438.207-.337.841.144.914 1.449.218 3.528-.026 5.468-1.45l.026.021c4.928 2.816 11.373 2.172 15.605-1.943a12.259 12.259 0 00-.01-17.676zm-4.853 14.184c-.283.281-.582.54-.85.832-.39.426-.881.56-1.437.53-.813-.042-1.566-.307-2.287-.65a12.388 12.388 0 01-4.132-3.143c-.85-.982-1.55-2.053-2.014-3.263-.225-.587-.385-1.185-.337-1.819a1.48 1.48 0 01.476-.997c.32-.296.62-.603.935-.904.411-.395.924-.39 1.336 0 .256.244.502.488.753.732.246.24.492.473.733.712.427.421.427.91 0 1.33-.305.302-.61.603-.925.894-.08.078-.09.14-.048.239.203.478.502.904.834 1.299.668.8 1.426 1.512 2.335 2.063.193.12.406.202.61.311.1.057.176.037.256-.046.304-.307.62-.608.93-.91.411-.395.924-.395 1.33 0 .503.483 1 .967 1.497 1.455.427.426.427.925.005 1.335zm-4.74-8.074l.16-1.112c1.106.151 2.111.64 2.902 1.408a4.863 4.863 0 011.422 2.666l-1.139.192a3.78 3.78 0 00-1.1-2.063 3.948 3.948 0 00-2.245-1.09zm6.343 2.962a7.03 7.03 0 00-2.036-3.824 7.354 7.354 0 00-4.158-2.016l.16-1.112a8.47 8.47 0 014.81 2.333 8.136 8.136 0 012.363 4.427l-1.139.192z"/></svg></svg>