<?xml version="1.0" encoding="utf-8"?><svg viewBox="0 0 71 61" xmlns="http://www.w3.org/2000/svg" xmlns:xlink="http://www.w3.org/1999/xlink"><style>:root>svg{display:none}:root>svg:target{display:block}</style><svg viewBox="0 0 15 22" id="arrow-btn" xmlns="http://www.w3.org/2000/svg"><path d="M3.536 0l10.606 10.607-3.535 3.535L0 3.536z"/><path d="M.326 17.763L10.818 7.27l3.536 3.535L3.862 21.298z"/></svg><svg viewBox="0 0 27 24" id="arrow-slider" xmlns="http://www.w3.org/2000/svg"><path d="M.94 10.94a1.5 1.5 0 000 2.12l9.545 9.547a1.5 1.5 0 102.122-2.122L4.12 12l8.486-8.485a1.5 1.5 0 10-2.122-2.122L.94 10.94zM27 10.5H2v3h25v-3z"/></svg><svg fill="none" viewBox="0 0 62 56" id="chair" xmlns="http://www.w3.org/2000/svg"><path d="M3.652 14.007c.45-1.386.738-2.804 1.156-4.19C8.247-1.465 21.388 1.05 30.995 1.05c9.51-.032 22.331-2.45 25.737 8.768.418 1.385.707 2.804 1.156 4.19 3.47 1.515 2.892 8.896 2.57 11.99-.706 6.19-3.79 20.05-11.695 20.437l1.414 7.51c.353 1.87-4.08 1.805-4.498.452l-2.41-7.705a322.52 322.52 0 01-24.965 0l-2.41 7.705c-.45 1.353-4.883 1.418-4.53-.451l1.414-7.511c-7.873-.387-10.99-14.247-11.664-20.436-.354-3.127-.9-10.412 2.538-11.99zm40.58 11.379c.643-3.836.868-7.285 3.117-10.67.643-.999 2.185 0 1.542 1-2.056 3.095-2.249 6.511-2.827 10.025 1.19.322 2.346.838 3.181 1.805.867-4.546 1.028-12.669 6.652-13.732-.322-1.16-.58-2.32-.9-3.449-2.988-9.8-15.68-7.51-24.002-7.479-8.386 0-21.399-2.417-24.42 7.478-.352 1.129-.578 2.289-.93 3.45 4.85.902 5.654 8.38 6.232 12.28.097.58.193 1.128.257 1.644.836-1.096 2.089-1.644 3.374-1.998-.578-3.513-.803-6.93-2.827-10.025-.675-1 .867-1.998 1.543-1 2.217 3.386 2.474 6.834 3.084 10.67 7.357-1.224 19.567-1.224 26.925 0zm1.832 9.38c1.092-.71 1.992-2.192 2.281-3.45-7.711-1.321-27.76-2.191-35.086.097.29 1.257 1.19 2.644 2.25 3.352 3.534 2.321 26.989 2.321 30.555 0zm2.217-5.319c-.353-.903-1.157-1.418-2.025-1.708-4.916-1.805-26.058-1.805-30.973 0-.867.322-1.703.838-2.024 1.74 8.225-2.127 26.572-1.386 35.022-.032zM47.06 36.28c-4.178 2.773-28.404 2.773-32.58 0-3.117-2.03-3.888-6.543-4.402-9.896-.322-1.998-1.768-12.603-5.72-10.701-2.216 1.096-1.606 8.445-1.413 10.089.546 4.9 3.405 18.502 9.864 18.824a351.36 351.36 0 0035.922 0c6.49-.322 9.35-13.925 9.896-18.824.161-1.676.771-8.928-1.414-10.057-3.727-1.966-5.494 7.768-5.751 9.606-.29 2.063-.546 3.9-1.19 5.093.001 2.191-1.413 4.706-3.212 5.866zm-.16 10.25c-.58.033-1.157.065-1.736.065l2.12 6.802c.386.129.676.193.932.193L46.9 46.53zm-30.524.065c-.579 0-1.157-.032-1.736-.064l-1.317 7.059c.321 0 .642-.097.932-.194l2.12-6.8z" fill="#000" stroke="#000" stroke-width=".6"/></svg><svg viewBox="0 0 25 25" id="facebook" xmlns="http://www.w3.org/2000/svg"><path d="M0 12.575C.002 18.762 4.473 24.03 10.546 25v-8.79H7.375v-3.635h3.175V9.808a4.454 4.454 0 011.214-3.565 4.395 4.395 0 013.502-1.34c.938.016 1.874.1 2.8.252v3.093h-1.58a1.8 1.8 0 00-1.487.49 1.825 1.825 0 00-.548 1.475v2.362h3.464l-.554 3.636h-2.91V25c6.568-1.044 11.174-7.08 10.48-13.734C24.238 4.612 18.49-.33 11.848.017 5.208.367.001 5.885 0 12.575z"/></svg><svg fill="none" viewBox="0 0 71 55" id="home" xmlns="http://www.w3.org/2000/svg"><path d="M61.025 16.47V52.63H10.677V16.47" stroke="#000" stroke-width="3" stroke-miterlimit="10"/><path d="M1.524 21.734L35.852 2.28 70.18 21.734M42.717 29.744h-13.73v22.885h13.73V29.744z" stroke="#000" stroke-width="3" stroke-miterlimit="10"/></svg><svg viewBox="0 0 25 25" id="instagram" xmlns="http://www.w3.org/2000/svg"><path d="M12.493 25c-3.414 0-3.817-.018-5.15-.076A9.152 9.152 0 014.31 24.3a6.407 6.407 0 01-3.65-3.647 9.124 9.124 0 01-.582-3.031C0 16.294 0 15.859 0 12.475c0-3.42.018-3.819.078-5.142A9.123 9.123 0 01.66 4.305C1.31 2.63 2.637 1.306 4.315.657A9.08 9.08 0 017.346.075C8.672 0 9.108 0 12.493 0c3.443 0 3.838.018 5.15.075 1.04.02 2.067.217 3.04.582a6.401 6.401 0 013.655 3.648c.37.983.569 2.023.584 3.073C25 8.706 25 9.14 25 12.522s-.02 3.826-.078 5.138a9.138 9.138 0 01-.582 3.035 6.414 6.414 0 01-3.657 3.648 9.191 9.191 0 01-3.034.58c-1.326.077-1.76.077-5.156.077zm-.047-22.806c-3.395 0-3.748.017-5.073.076a6.934 6.934 0 00-2.317.432A4.146 4.146 0 002.67 5.075a6.943 6.943 0 00-.432 2.338c-.074 1.343-.074 1.695-.074 5.062 0 3.327.013 3.73.074 5.065.012.79.158 1.573.432 2.315a4.149 4.149 0 002.386 2.371 6.84 6.84 0 002.317.431c1.343.078 1.697.078 5.073.078 3.405 0 3.758-.017 5.072-.078a6.901 6.901 0 002.318-.43 4.162 4.162 0 002.374-2.37c.277-.749.423-1.54.432-2.34h.015c.06-1.324.06-1.678.06-5.064s-.015-3.743-.075-5.066a6.998 6.998 0 00-.432-2.312 4.161 4.161 0 00-2.374-2.373 6.87 6.87 0 00-2.318-.432c-1.342-.076-1.693-.076-5.072-.076zm.047 16.684a6.417 6.417 0 01-5.931-3.953A6.401 6.401 0 017.949 7.94a6.424 6.424 0 016.994-1.392 6.408 6.408 0 013.963 5.92 6.42 6.42 0 01-6.413 6.41zm0-10.571a4.161 4.161 0 00-4.164 4.158 4.161 4.161 0 004.164 4.159c2.3 0 4.165-1.862 4.165-4.159a4.171 4.171 0 00-4.165-4.158zm6.663-.988a1.495 1.495 0 11.01-2.991 1.495 1.495 0 01-.01 2.99z"/></svg><svg fill="none" viewBox="0 0 17 16" id="plus" xmlns="http://www.w3.org/2000/svg"><path d="M9 8H1m8 8V8v8zm0-8V0v8zm0 0h8-8z" stroke="#988A75" stroke-width="2" stroke-linecap="round"/></svg><svg viewBox="0 0 27 25" id="viber" xmlns="http://www.w3.org/2000/svg"><path d="M22.917 3.663c-5.024-4.884-13.163-4.884-18.181 0-4.832 4.697-5.013 12.21-.54 17.12l.134.104c-.487 1.018-1.32 2.276-2.646 2.91-.438.207-.337.841.144.914 1.449.218 3.528-.026 5.468-1.45l.026.021c4.928 2.816 11.373 2.172 15.605-1.943a12.259 12.259 0 00-.01-17.676zm-4.853 14.184c-.283.281-.582.54-.85.832-.39.426-.881.56-1.437.53-.813-.042-1.566-.307-2.287-.65a12.388 12.388 0 01-4.132-3.143c-.85-.982-1.55-2.053-2.014-3.263-.225-.587-.385-1.185-.337-1.819a1.48 1.48 0 01.476-.997c.32-.296.62-.603.935-.904.411-.395.924-.39 1.336 0 .256.244.502.488.753.732.246.24.492.473.733.712.427.421.427.91 0 1.33-.305.302-.61.603-.925.894-.08.078-.09.14-.048.239.203.478.502.904.834 1.299.668.8 1.426 1.512 2.335 2.063.193.12.406.202.61.311.1.057.176.037.256-.046.304-.307.62-.608.93-.91.411-.395.924-.395 1.33 0 .503.483 1 .967 1.497 1.455.427.426.427.925.005 1.335zm-4.74-8.074l.16-1.112c1.106.151 2.111.64 2.902 1.408a4.863 4.863 0 011.422 2.666l-1.139.192a3.78 3.78 0 00-1.1-2.063 3.948 3.948 0 00-2.245-1.09zm6.343 2.962a7.03 7.03 0 00-2.036-3.824 7.354 7.354 0 00-4.158-2.016l.16-1.112a8.47 8.47 0 014.81 2.333 8.136 8.136 0 012.363 4.427l-1.139.192z"/></svg><svg fill="none" viewBox="0 0 56 61" id="wardrobe" xmlns="http://www.w3.org/2000/svg"><path d="M54.35 59.193V47.671a.631.631 0 00-.632-.631H18.362V1.898a.631.631 0 00-.631-.631H2.338a.631.631 0 00-.631.63v57.296a.631.631 0 00.631.632h51.38a.631.631 0 00.631-.632zM2.97 2.53H17.1v56.033H2.97V2.529zm50.116 56.033H18.362v-10.26h34.724v10.26z" fill="#000" stroke="#000" stroke-width="1.5"/><path d="M49.217 42.86a.631.631 0 00.63-.631V6.633a.631.631 0 00-.63-.631H23.729a.631.631 0 00-.632.631v35.596a.631.631 0 00.632.631h25.488zM24.36 7.264h24.225v34.333H24.36V7.264z" fill="#000" stroke="#000" stroke-width="1.5"/><path d="M43.327 15.908l-12.71 12.696a.631.631 0 10.891.89l12.71-12.709a.631.631 0 00-.891-.877zM43.324 24.974l-2.683 2.683a.63.63 0 10.89.878l2.683-2.684a.631.631 0 00-.89-.89v.013zM31.878 22.417a.632.632 0 00.448-.183l6.396-6.37a.631.631 0 00-.89-.89l-6.377 6.37a.63.63 0 00.423 1.073zM14.2 22.972a.631.631 0 00-.63.632v8.44a.631.631 0 001.262 0v-8.44a.631.631 0 00-.631-.632zM31.066 54.067h9.654a.631.631 0 100-1.263h-9.654a.631.631 0 000 1.263z" fill="#000" stroke="#000" stroke-width="1.5"/></svg></svg>