<svg width="444" height="202" viewBox="0 0 444 202" fill="none" xmlns="http://www.w3.org/2000/svg">
<path d="M53.6 97L47.9 81.3H16.4L10.7 97H0.8L26.9 27H37.4L63.5 97H53.6ZM19.6 72.6H44.7L32.1 38.1L19.6 72.6ZM113.258 97L97.5578 70.2H81.0578V97H71.7578V27H99.7578C105.758 27 110.891 29.1333 115.158 33.4C119.424 37.6 121.558 42.7 121.558 48.7C121.558 53.2333 120.191 57.3667 117.458 61.1C114.791 64.8333 111.324 67.4667 107.058 69L123.558 97H113.258ZM81.0578 35.7V61.8H99.7578C103.224 61.8 106.158 60.5333 108.558 58C111.024 55.4 112.258 52.3 112.258 48.7C112.258 45.1 111.024 42.0333 108.558 39.5C106.158 36.9667 103.224 35.7 99.7578 35.7H81.0578ZM165.498 98.3C154.898 98.3 146.131 94.8 139.198 87.8C132.331 80.8 128.898 72.2 128.898 62C128.898 51.8 132.331 43.2 139.198 36.2C146.131 29.2 154.898 25.7 165.498 25.7C171.898 25.7 177.764 27.2333 183.098 30.3C188.498 33.3667 192.698 37.5 195.698 42.7L187.598 47.4C185.598 43.5333 182.598 40.4667 178.598 38.2C174.664 35.8667 170.298 34.7 165.498 34.7C157.431 34.7 150.831 37.3 145.698 42.5C140.631 47.7 138.098 54.2 138.098 62C138.098 69.7333 140.631 76.2 145.698 81.4C150.831 86.6 157.431 89.2 165.498 89.2C170.298 89.2 174.664 88.0667 178.598 85.8C182.598 83.4667 185.598 80.4 187.598 76.6L195.698 81.2C192.764 86.4 188.598 90.5667 183.198 93.7C177.798 96.7667 171.898 98.3 165.498 98.3ZM249.53 27H258.73V97H249.53V65.5H215.53V97H206.23V27H215.53V56.7H249.53V27Z" fill="#2F2F2F"/>
<path d="M52.3 127V135.8H31.6V197H22.4V135.8H1.8V127H52.3ZM70.8039 188.2H103.304V197H61.5039V127H102.804V135.8H70.8039V157.3H100.304V166H70.8039V188.2ZM146.943 198.3C136.343 198.3 127.576 194.8 120.643 187.8C113.776 180.8 110.343 172.2 110.343 162C110.343 151.8 113.776 143.2 120.643 136.2C127.576 129.2 136.343 125.7 146.943 125.7C153.343 125.7 159.21 127.233 164.543 130.3C169.943 133.367 174.143 137.5 177.143 142.7L169.043 147.4C167.043 143.533 164.043 140.467 160.043 138.2C156.11 135.867 151.743 134.7 146.943 134.7C138.876 134.7 132.276 137.3 127.143 142.5C122.076 147.7 119.543 154.2 119.543 162C119.543 169.733 122.076 176.2 127.143 181.4C132.276 186.6 138.876 189.2 146.943 189.2C151.743 189.2 156.11 188.067 160.043 185.8C164.043 183.467 167.043 180.4 169.043 176.6L177.143 181.2C174.21 186.4 170.043 190.567 164.643 193.7C159.243 196.767 153.343 198.3 146.943 198.3ZM231.695 127V135.8H210.995V197H201.795V135.8H181.195V127H231.695ZM285.198 191.6C280.332 196.067 274.032 198.3 266.298 198.3C258.565 198.3 252.232 196.067 247.298 191.6C242.432 187.067 239.998 181.033 239.998 173.5V127H249.298V173.1C249.298 178.033 250.765 181.967 253.698 184.9C256.632 187.767 260.832 189.2 266.298 189.2C271.765 189.2 275.965 187.767 278.898 184.9C281.832 181.967 283.298 178.033 283.298 173.1V127H292.498V173.5C292.498 181.033 290.065 187.067 285.198 191.6ZM348.219 197L332.519 170.2H316.019V197H306.719V127H334.719C340.719 127 345.852 129.133 350.119 133.4C354.385 137.6 356.519 142.7 356.519 148.7C356.519 153.233 355.152 157.367 352.419 161.1C349.752 164.833 346.285 167.467 342.019 169L358.519 197H348.219ZM316.019 135.7V161.8H334.719C338.185 161.8 341.119 160.533 343.519 158C345.985 155.4 347.219 152.3 347.219 148.7C347.219 145.1 345.985 142.033 343.519 139.5C341.119 136.967 338.185 135.7 334.719 135.7H316.019ZM377.152 188.2H409.652V197H367.852V127H409.152V135.8H377.152V157.3H406.652V166H377.152V188.2Z" fill="#2F2F2F"/>
<path fill-rule="evenodd" clip-rule="evenodd" d="M272 29.9941L325.546 0V26.661L272.001 56.6549L272 56.654V29.9941Z" fill="#FBB03B"/>
<path fill-rule="evenodd" clip-rule="evenodd" d="M272 69.9354L325.546 39.4868V66.5518L272.001 97.0001L272 96.9992V69.9354Z" fill="#FBB03B"/>
<path d="M443.628 184.5C443.628 191.404 438.115 197 431.314 197C424.513 197 419 191.404 419 184.5C419 177.596 424.513 172 431.314 172C438.115 172 443.628 177.596 443.628 184.5Z" fill="#2F2F2F"/>
</svg>
