<svg width="328" height="174" viewBox="0 0 328 174" fill="none" xmlns="http://www.w3.org/2000/svg">
<path d="M51 70V17.8L15 70H7.5V-4.76837e-06H16.8V52.3L52.8 -4.76837e-06H60.3V70H51ZM118.573 -4.76837e-06H127.773V70H118.573V38.5H84.5734V70H75.2734V-4.76837e-06H84.5734V29.7H118.573V-4.76837e-06ZM187.554 -4.76837e-06V8.8H166.854V70H157.654V8.8H137.054V-4.76837e-06H187.554ZM206.058 61.2H238.558V70H196.758V-4.76837e-06H238.058V8.8H206.058V30.3H235.558V39H206.058V61.2Z" fill="#2F2F2F"/>
<path d="M100.9 80C107.367 80 112.733 82.1667 117 86.5C121.333 90.7667 123.5 96.1 123.5 102.5C123.5 108.833 121.333 114.167 117 118.5C112.733 122.833 107.367 125 100.9 125H84.8V150H75.5V80H100.9ZM100.9 116.3C104.767 116.3 107.967 115 110.5 112.4C113.033 109.733 114.3 106.433 114.3 102.5C114.3 98.5 113.033 95.2 110.5 92.6C107.967 90 104.767 88.7 100.9 88.7H84.8V116.3H100.9ZM159.884 105C166.351 105 171.718 107.167 175.984 111.5C180.318 115.833 182.484 121.167 182.484 127.5C182.484 133.9 180.318 139.267 175.984 143.6C171.718 147.867 166.351 150 159.884 150H134.484V80H143.784V105H159.884ZM159.884 141.3C163.751 141.3 166.951 140 169.484 137.4C172.018 134.8 173.284 131.5 173.284 127.5C173.284 123.567 172.018 120.3 169.484 117.7C166.951 115.033 163.751 113.7 159.884 113.7H143.784V141.3H159.884ZM202.769 141.2H235.269V150H193.469V80H234.769V88.8H202.769V110.3H232.269V119H202.769V141.2ZM271.896 80C278.363 80 283.729 82.1667 287.996 86.5C292.329 90.7667 294.496 96.1 294.496 102.5C294.496 108.833 292.329 114.167 287.996 118.5C283.729 122.833 278.363 125 271.896 125H255.796V150H246.496V80H271.896ZM271.896 116.3C275.763 116.3 278.963 115 281.496 112.4C284.029 109.733 285.296 106.433 285.296 102.5C285.296 98.5 284.029 95.2 281.496 92.6C278.963 90 275.763 88.7 271.896 88.7H255.796V116.3H271.896Z" fill="#2F2F2F"/>
<path fill-rule="evenodd" clip-rule="evenodd" d="M7 106.994L60.5458 77V103.661L7.00053 133.655L7 133.654V106.994Z" fill="#FBB03B"/>
<path fill-rule="evenodd" clip-rule="evenodd" d="M7 146.935L60.5458 116.487V143.552L7.00053 174L7 173.999V146.935Z" fill="#FBB03B"/>
<path d="M327.628 140.5C327.628 147.404 322.115 153 315.314 153C308.513 153 303 147.404 303 140.5C303 133.596 308.513 128 315.314 128C322.115 128 327.628 133.596 327.628 140.5Z" fill="#2F2F2F"/>
</svg>
