<svg width="339" height="174" viewBox="0 0 339 174" fill="none" xmlns="http://www.w3.org/2000/svg">
<path d="M47.8 8.8H16.8V31.5H46.5V40.3H16.8V70H7.5V-4.76837e-06H47.8V8.8ZM103.363 64.6C98.4958 69.0667 92.1958 71.3 84.4625 71.3C76.7292 71.3 70.3958 69.0667 65.4625 64.6C60.5958 60.0667 58.1625 54.0333 58.1625 46.5V-4.76837e-06H67.4625V46.1C67.4625 51.0333 68.9292 54.9667 71.8625 57.9C74.7958 60.7667 78.9958 62.2 84.4625 62.2C89.9292 62.2 94.1292 60.7667 97.0625 57.9C99.9958 54.9667 101.463 51.0333 101.463 46.1V-4.76837e-06H110.663V46.5C110.663 54.0333 108.229 60.0667 103.363 64.6ZM166.383 70L150.683 43.2H134.183V70H124.883V-4.76837e-06H152.883C158.883 -4.76837e-06 164.016 2.13333 168.283 6.4C172.549 10.6 174.683 15.7 174.683 21.7C174.683 26.2333 173.316 30.3667 170.583 34.1C167.916 37.8333 164.449 40.4667 160.183 42L176.683 70H166.383ZM134.183 8.7V34.8H152.883C156.349 34.8 159.283 33.5333 161.683 31C164.149 28.4 165.383 25.3 165.383 21.7C165.383 18.1 164.149 15.0333 161.683 12.5C159.283 9.96666 156.349 8.7 152.883 8.7H134.183ZM229.516 -4.76837e-06H238.816V70H231.316L195.316 17.7V70H186.016V-4.76837e-06H193.516L229.516 52.2V-4.76837e-06ZM253.789 -4.76837e-06H263.089V70H253.789V-4.76837e-06Z" fill="#2F2F2F"/>
<path d="M127.3 80V88.8H106.6V150H97.4V88.8H76.8V80H127.3ZM180.804 144.6C175.937 149.067 169.637 151.3 161.904 151.3C154.171 151.3 147.837 149.067 142.904 144.6C138.037 140.067 135.604 134.033 135.604 126.5V80H144.904V126.1C144.904 131.033 146.371 134.967 149.304 137.9C152.237 140.767 156.437 142.2 161.904 142.2C167.371 142.2 171.571 140.767 174.504 137.9C177.437 134.967 178.904 131.033 178.904 126.1V80H188.104V126.5C188.104 134.033 185.671 140.067 180.804 144.6ZM243.824 150L228.124 123.2H211.624V150H202.324V80H230.324C236.324 80 241.458 82.1333 245.724 86.4C249.991 90.6 252.124 95.7 252.124 101.7C252.124 106.233 250.758 110.367 248.024 114.1C245.358 117.833 241.891 120.467 237.624 122L254.124 150H243.824ZM211.624 88.7V114.8H230.324C233.791 114.8 236.724 113.533 239.124 111C241.591 108.4 242.824 105.3 242.824 101.7C242.824 98.1 241.591 95.0333 239.124 92.5C236.724 89.9667 233.791 88.7 230.324 88.7H211.624ZM272.757 141.2H305.257V150H263.457V80H304.757V88.8H272.757V110.3H302.257V119H272.757V141.2Z" fill="#2F2F2F"/>
<path fill-rule="evenodd" clip-rule="evenodd" d="M7 106.994L60.5458 77V103.661L7.00053 133.655L7 133.654V106.994Z" fill="#FBB03B"/>
<path fill-rule="evenodd" clip-rule="evenodd" d="M7 146.935L60.5458 116.487V143.552L7.00053 174L7 173.999V146.935Z" fill="#FBB03B"/>
<path d="M338.628 137.5C338.628 144.404 333.115 150 326.314 150C319.513 150 314 144.404 314 137.5C314 130.596 319.513 125 326.314 125C333.115 125 338.628 130.596 338.628 137.5Z" fill="#2F2F2F"/>
</svg>
