<svg width="312" height="187" viewBox="0 0 312 187" fill="none" xmlns="http://www.w3.org/2000/svg">
<path d="M32.9 27C39.3667 27 44.7333 29.1667 49 33.5C53.3333 37.7667 55.5 43.1 55.5 49.5C55.5 55.8333 53.3333 61.1667 49 65.5C44.7333 69.8333 39.3667 72 32.9 72H16.8V97H7.5V27H32.9ZM32.9 63.3C36.7667 63.3 39.9667 62 42.5 59.4C45.0333 56.7333 46.3 53.4333 46.3 49.5C46.3 45.5 45.0333 42.2 42.5 39.6C39.9667 37 36.7667 35.7 32.9 35.7H16.8V63.3H32.9ZM75.7844 88.2H108.284V97H66.4844V27H107.784V35.8H75.7844V57.3H105.284V66H75.7844V88.2Z" fill="#2F2F2F"/>
<path d="M73 112V182H63.8V127.3L40.9 165.4H39.7L16.8 127.4V182H7.5V112H18L40.3 149L62.5 112H73ZM146.169 172.7C139.169 179.767 130.602 183.3 120.469 183.3C110.335 183.3 101.769 179.767 94.7688 172.7C87.7688 165.633 84.2688 157.067 84.2688 147C84.2688 136.867 87.7688 128.3 94.7688 121.3C101.769 114.233 110.335 110.7 120.469 110.7C130.602 110.7 139.169 114.233 146.169 121.3C153.235 128.3 156.769 136.867 156.769 147C156.769 157.067 153.235 165.633 146.169 172.7ZM101.169 166.4C106.369 171.6 112.802 174.2 120.469 174.2C128.135 174.2 134.535 171.6 139.669 166.4C144.869 161.133 147.469 154.667 147.469 147C147.469 139.267 144.869 132.8 139.669 127.6C134.535 122.333 128.135 119.7 120.469 119.7C112.802 119.7 106.369 122.333 101.169 127.6C96.0354 132.8 93.4688 139.267 93.4688 147C93.4688 154.667 96.0354 161.133 101.169 166.4ZM211.249 112H220.449V182H211.249V150.5H177.249V182H167.949V112H177.249V141.7H211.249V112ZM280.23 112V120.8H259.53V182H250.33V120.8H229.73V112H280.23Z" fill="#2F2F2F"/>
<path fill-rule="evenodd" clip-rule="evenodd" d="M128 29.9941L181.546 0V26.661L128.001 56.6549L128 56.654V29.9941Z" fill="#FBB03B"/>
<path fill-rule="evenodd" clip-rule="evenodd" d="M128 69.9354L181.546 39.4868V66.5518L128.001 97.0001L128 96.9992V69.9354Z" fill="#FBB03B"/>
<path d="M311.628 169.5C311.628 176.404 306.115 182 299.314 182C292.513 182 287 176.404 287 169.5C287 162.596 292.513 157 299.314 157C306.115 157 311.628 162.596 311.628 169.5Z" fill="#2F2F2F"/>
</svg>
